<svg width="128" height="128" viewBox="0 0 128 128" fill="none" xmlns="http://www.w3.org/2000/svg">
<rect width="128" height="128" fill="#1C1C1C"/>
<path d="M47.3636 88.2727C43.1364 88.2576 39.4848 87.2803 36.4091 85.3409C33.3333 83.4015 30.9621 80.6061 29.2955 76.9545C27.6288 73.303 26.803 68.9242 26.8182 63.8182C26.8333 58.697 27.6667 54.3485 29.3182 50.7727C30.9848 47.197 33.3485 44.4773 36.4091 42.6136C39.4848 40.75 43.1364 39.8182 47.3636 39.8182C51.5909 39.8182 55.2424 40.7576 58.3182 42.6364C61.3939 44.5 63.7652 47.2197 65.4318 50.7955C67.0985 54.3712 67.9242 58.7121 67.9091 63.8182C67.9091 68.9545 67.0758 73.3485 65.4091 77C63.7424 80.6515 61.3712 83.447 58.2955 85.3864C55.2348 87.3106 51.5909 88.2727 47.3636 88.2727ZM47.3636 78C49.5455 78 51.3333 76.8636 52.7273 74.5909C54.1364 72.303 54.8333 68.7121 54.8182 63.8182C54.8182 60.6212 54.5 58.0076 53.8636 55.9773C53.2273 53.947 52.3485 52.447 51.2273 51.4773C50.1061 50.4924 48.8182 50 47.3636 50C45.1818 50 43.4015 51.1061 42.0227 53.3182C40.6439 55.5303 39.9394 59.0303 39.9091 63.8182C39.8939 67.0758 40.2045 69.7576 40.8409 71.8636C41.4773 73.9545 42.3561 75.5 43.4773 76.5C44.6136 77.5 45.9091 78 47.3636 78ZM96.6591 40.4545V87H84.0227V52.0909H83.75L73.5682 58.1818V47.4545L85.0227 40.4545H96.6591Z" fill="white"/>
</svg>
